<mxfile host="www.draw.io" modified="2020-08-28T19:12:36.960Z" agent="5.0 (Macintosh; Intel Mac OS X 10_15_6) AppleWebKit/537.36 (KHTML, like Gecko) Chrome/84.0.4147.135 Safari/537.36" etag="tcjsYccJMVOFGgjeVShz" version="13.6.5" type="github">
  <diagram id="vPWEBYrySgTdhOA6jQeR" name="Page-1">
    <mxGraphModel dx="2468" dy="612" grid="1" gridSize="10" guides="1" tooltips="1" connect="1" arrows="1" fold="1" page="1" pageScale="1" pageWidth="1100" pageHeight="850" math="0" shadow="0">
      <root>
        <mxCell id="0" />
        <mxCell id="1" parent="0" />
        <mxCell id="oVar-C9LrSme6sExURbz-7" value="" style="edgeStyle=orthogonalEdgeStyle;rounded=0;orthogonalLoop=1;jettySize=auto;html=1;entryX=0;entryY=0.5;entryDx=0;entryDy=0;curved=1;exitX=1;exitY=0.5;exitDx=0;exitDy=0;" edge="1" parent="1" source="oVar-C9LrSme6sExURbz-86" target="oVar-C9LrSme6sExURbz-5">
          <mxGeometry relative="1" as="geometry" />
        </mxCell>
        <mxCell id="oVar-C9LrSme6sExURbz-2" value="Identified Feature" style="shape=mxgraph.bpmn.shape;html=1;verticalLabelPosition=bottom;labelBackgroundColor=#ffffff;verticalAlign=top;align=center;perimeter=ellipsePerimeter;outlineConnect=0;outline=standard;symbol=general;strokeColor=#000000;" vertex="1" parent="1">
          <mxGeometry x="-900" y="110" width="50" height="50" as="geometry" />
        </mxCell>
        <mxCell id="oVar-C9LrSme6sExURbz-9" value="" style="edgeStyle=orthogonalEdgeStyle;curved=1;rounded=0;orthogonalLoop=1;jettySize=auto;html=1;exitX=1;exitY=0.5;exitDx=0;exitDy=0;" edge="1" parent="1" source="oVar-C9LrSme6sExURbz-5" target="oVar-C9LrSme6sExURbz-16">
          <mxGeometry relative="1" as="geometry" />
        </mxCell>
        <mxCell id="oVar-C9LrSme6sExURbz-5" value="Product&lt;br&gt;Leadership&amp;nbsp;&lt;br&gt;Review" style="shape=mxgraph.bpmn.shape;html=1;verticalLabelPosition=bottom;labelBackgroundColor=#ffffff;verticalAlign=top;align=center;perimeter=ellipsePerimeter;outlineConnect=0;outline=throwing;symbol=general;" vertex="1" parent="1">
          <mxGeometry x="-610" y="110" width="50" height="50" as="geometry" />
        </mxCell>
        <mxCell id="oVar-C9LrSme6sExURbz-11" value="" style="edgeStyle=orthogonalEdgeStyle;curved=1;rounded=0;orthogonalLoop=1;jettySize=auto;html=1;" edge="1" parent="1" source="oVar-C9LrSme6sExURbz-8" target="oVar-C9LrSme6sExURbz-10">
          <mxGeometry relative="1" as="geometry" />
        </mxCell>
        <mxCell id="oVar-C9LrSme6sExURbz-8" value="L1 WIP" style="shape=mxgraph.bpmn.shape;html=1;verticalLabelPosition=bottom;labelBackgroundColor=#ffffff;verticalAlign=top;align=center;perimeter=ellipsePerimeter;outlineConnect=0;outline=throwing;symbol=general;strokeColor=#3399FF;" vertex="1" parent="1">
          <mxGeometry x="10" y="320" width="50" height="50" as="geometry" />
        </mxCell>
        <mxCell id="oVar-C9LrSme6sExURbz-13" value="" style="edgeStyle=orthogonalEdgeStyle;curved=1;rounded=0;orthogonalLoop=1;jettySize=auto;html=1;" edge="1" parent="1" source="oVar-C9LrSme6sExURbz-10" target="oVar-C9LrSme6sExURbz-12">
          <mxGeometry relative="1" as="geometry" />
        </mxCell>
        <mxCell id="oVar-C9LrSme6sExURbz-20" value="" style="edgeStyle=orthogonalEdgeStyle;curved=1;rounded=0;orthogonalLoop=1;jettySize=auto;html=1;entryX=0.5;entryY=0;entryDx=0;entryDy=0;exitX=0.5;exitY=0;exitDx=0;exitDy=0;" edge="1" parent="1" source="oVar-C9LrSme6sExURbz-10" target="oVar-C9LrSme6sExURbz-8">
          <mxGeometry relative="1" as="geometry">
            <mxPoint x="285" y="170" as="targetPoint" />
            <Array as="points">
              <mxPoint x="235" y="280" />
              <mxPoint x="35" y="280" />
            </Array>
          </mxGeometry>
        </mxCell>
        <mxCell id="oVar-C9LrSme6sExURbz-10" value="Leadership&lt;br&gt;Aligned" style="shape=mxgraph.bpmn.shape;html=1;verticalLabelPosition=bottom;labelBackgroundColor=#ffffff;verticalAlign=top;align=center;perimeter=ellipsePerimeter;outlineConnect=0;outline=throwing;symbol=general;" vertex="1" parent="1">
          <mxGeometry x="210" y="320" width="50" height="50" as="geometry" />
        </mxCell>
        <mxCell id="oVar-C9LrSme6sExURbz-15" value="" style="edgeStyle=orthogonalEdgeStyle;curved=1;rounded=0;orthogonalLoop=1;jettySize=auto;html=1;" edge="1" parent="1" source="oVar-C9LrSme6sExURbz-12" target="oVar-C9LrSme6sExURbz-14">
          <mxGeometry relative="1" as="geometry" />
        </mxCell>
        <mxCell id="oVar-C9LrSme6sExURbz-12" value="L1 Stakeholders&lt;br&gt;Aligned" style="shape=mxgraph.bpmn.shape;html=1;verticalLabelPosition=bottom;labelBackgroundColor=#ffffff;verticalAlign=top;align=center;perimeter=ellipsePerimeter;outlineConnect=0;outline=throwing;symbol=general;strokeColor=#000000;" vertex="1" parent="1">
          <mxGeometry x="340" y="320" width="50" height="50" as="geometry" />
        </mxCell>
        <mxCell id="oVar-C9LrSme6sExURbz-28" value="" style="edgeStyle=none;rounded=0;orthogonalLoop=1;jettySize=auto;html=1;" edge="1" parent="1" source="oVar-C9LrSme6sExURbz-14" target="oVar-C9LrSme6sExURbz-27">
          <mxGeometry relative="1" as="geometry" />
        </mxCell>
        <mxCell id="oVar-C9LrSme6sExURbz-14" value="L2 WIP" style="shape=mxgraph.bpmn.shape;html=1;verticalLabelPosition=bottom;labelBackgroundColor=#ffffff;verticalAlign=top;align=center;perimeter=ellipsePerimeter;outlineConnect=0;outline=throwing;symbol=general;strokeColor=#007FFF;" vertex="1" parent="1">
          <mxGeometry x="480" y="320" width="50" height="50" as="geometry" />
        </mxCell>
        <mxCell id="oVar-C9LrSme6sExURbz-18" value="" style="edgeStyle=orthogonalEdgeStyle;curved=1;rounded=0;orthogonalLoop=1;jettySize=auto;html=1;entryX=0;entryY=0.5;entryDx=0;entryDy=0;exitX=1;exitY=0.5;exitDx=0;exitDy=0;" edge="1" parent="1" source="oVar-C9LrSme6sExURbz-72" target="oVar-C9LrSme6sExURbz-8">
          <mxGeometry relative="1" as="geometry">
            <mxPoint x="60" y="345" as="sourcePoint" />
          </mxGeometry>
        </mxCell>
        <mxCell id="oVar-C9LrSme6sExURbz-16" value="L0 Aligned" style="shape=mxgraph.bpmn.shape;html=1;verticalLabelPosition=bottom;labelBackgroundColor=#ffffff;verticalAlign=top;align=center;perimeter=ellipsePerimeter;outlineConnect=0;outline=throwing;symbol=general;strokeColor=#000000;" vertex="1" parent="1">
          <mxGeometry x="-480" y="110" width="50" height="50" as="geometry" />
        </mxCell>
        <mxCell id="oVar-C9LrSme6sExURbz-31" value="" style="rounded=0;orthogonalLoop=1;jettySize=auto;html=1;strokeColor=#FF3333;exitX=0.5;exitY=1;exitDx=0;exitDy=0;" edge="1" parent="1" source="oVar-C9LrSme6sExURbz-17" target="oVar-C9LrSme6sExURbz-30">
          <mxGeometry relative="1" as="geometry" />
        </mxCell>
        <mxCell id="oVar-C9LrSme6sExURbz-17" value="Blocked" style="shape=mxgraph.bpmn.shape;html=1;verticalLabelPosition=bottom;labelBackgroundColor=#ffffff;verticalAlign=top;align=center;perimeter=ellipsePerimeter;outlineConnect=0;outline=throwing;symbol=general;strokeColor=#FF3333;" vertex="1" parent="1">
          <mxGeometry x="220" y="540" width="50" height="50" as="geometry" />
        </mxCell>
        <mxCell id="oVar-C9LrSme6sExURbz-21" value="" style="edgeStyle=orthogonalEdgeStyle;curved=1;rounded=0;orthogonalLoop=1;jettySize=auto;html=1;entryX=0.5;entryY=0;entryDx=0;entryDy=0;exitX=0.5;exitY=0;exitDx=0;exitDy=0;" edge="1" parent="1" source="oVar-C9LrSme6sExURbz-10" target="oVar-C9LrSme6sExURbz-86">
          <mxGeometry relative="1" as="geometry">
            <mxPoint x="295" y="260" as="sourcePoint" />
            <mxPoint x="185" y="260" as="targetPoint" />
            <Array as="points">
              <mxPoint x="235" y="60" />
              <mxPoint x="-745" y="60" />
            </Array>
          </mxGeometry>
        </mxCell>
        <mxCell id="oVar-C9LrSme6sExURbz-22" value="" style="rounded=0;orthogonalLoop=1;jettySize=auto;html=1;entryX=0.145;entryY=0.145;entryDx=0;entryDy=0;exitX=0.5;exitY=1;exitDx=0;exitDy=0;entryPerimeter=0;" edge="1" parent="1" source="oVar-C9LrSme6sExURbz-8" target="oVar-C9LrSme6sExURbz-17">
          <mxGeometry relative="1" as="geometry">
            <mxPoint x="295" y="260" as="sourcePoint" />
            <mxPoint x="185" y="260" as="targetPoint" />
          </mxGeometry>
        </mxCell>
        <mxCell id="oVar-C9LrSme6sExURbz-24" value="" style="rounded=0;orthogonalLoop=1;jettySize=auto;html=1;entryX=0.5;entryY=0;entryDx=0;entryDy=0;exitX=0.5;exitY=1;exitDx=0;exitDy=0;" edge="1" parent="1" source="oVar-C9LrSme6sExURbz-12" target="oVar-C9LrSme6sExURbz-17">
          <mxGeometry relative="1" as="geometry">
            <mxPoint x="295" y="310" as="sourcePoint" />
            <mxPoint x="100" y="465" as="targetPoint" />
          </mxGeometry>
        </mxCell>
        <mxCell id="oVar-C9LrSme6sExURbz-25" value="" style="rounded=0;orthogonalLoop=1;jettySize=auto;html=1;entryX=0.855;entryY=0.145;entryDx=0;entryDy=0;exitX=0.5;exitY=1;exitDx=0;exitDy=0;entryPerimeter=0;" edge="1" parent="1" source="oVar-C9LrSme6sExURbz-14" target="oVar-C9LrSme6sExURbz-17">
          <mxGeometry relative="1" as="geometry">
            <mxPoint x="395" y="310" as="sourcePoint" />
            <mxPoint x="272.75" y="457.25" as="targetPoint" />
          </mxGeometry>
        </mxCell>
        <mxCell id="oVar-C9LrSme6sExURbz-26" value="" style="rounded=0;orthogonalLoop=1;jettySize=auto;html=1;entryX=0.5;entryY=0;entryDx=0;entryDy=0;exitX=0.5;exitY=0;exitDx=0;exitDy=0;edgeStyle=orthogonalEdgeStyle;curved=1;" edge="1" parent="1" source="oVar-C9LrSme6sExURbz-5" target="oVar-C9LrSme6sExURbz-86">
          <mxGeometry relative="1" as="geometry">
            <mxPoint x="185" y="310" as="sourcePoint" />
            <mxPoint x="237.25" y="457.25" as="targetPoint" />
            <Array as="points">
              <mxPoint x="-590" y="110" />
              <mxPoint x="-590" y="90" />
              <mxPoint x="-745" y="90" />
            </Array>
          </mxGeometry>
        </mxCell>
        <mxCell id="oVar-C9LrSme6sExURbz-36" value="" style="rounded=0;orthogonalLoop=1;jettySize=auto;html=1;entryX=0;entryY=0.5;entryDx=0;entryDy=0;" edge="1" parent="1" source="oVar-C9LrSme6sExURbz-27" target="oVar-C9LrSme6sExURbz-42">
          <mxGeometry relative="1" as="geometry" />
        </mxCell>
        <mxCell id="oVar-C9LrSme6sExURbz-27" value="Tech&lt;br&gt;Leadership&lt;br&gt;Aligned" style="shape=mxgraph.bpmn.shape;html=1;verticalLabelPosition=bottom;labelBackgroundColor=#ffffff;verticalAlign=top;align=center;perimeter=ellipsePerimeter;outlineConnect=0;outline=throwing;symbol=general;" vertex="1" parent="1">
          <mxGeometry x="610" y="320" width="50" height="50" as="geometry" />
        </mxCell>
        <mxCell id="oVar-C9LrSme6sExURbz-29" value="" style="edgeStyle=orthogonalEdgeStyle;curved=1;rounded=0;orthogonalLoop=1;jettySize=auto;html=1;entryX=0.5;entryY=0;entryDx=0;entryDy=0;exitX=0.5;exitY=0;exitDx=0;exitDy=0;" edge="1" parent="1" source="oVar-C9LrSme6sExURbz-27" target="oVar-C9LrSme6sExURbz-8">
          <mxGeometry relative="1" as="geometry">
            <mxPoint x="295" y="260" as="sourcePoint" />
            <mxPoint x="185" y="260" as="targetPoint" />
            <Array as="points">
              <mxPoint x="635" y="250" />
              <mxPoint x="35" y="250" />
            </Array>
          </mxGeometry>
        </mxCell>
        <mxCell id="oVar-C9LrSme6sExURbz-33" value="" style="rounded=0;orthogonalLoop=1;jettySize=auto;html=1;exitX=1;exitY=0.5;exitDx=0;exitDy=0;strokeColor=#FF3333;entryX=0;entryY=0.5;entryDx=0;entryDy=0;" edge="1" parent="1" source="oVar-C9LrSme6sExURbz-30" target="oVar-C9LrSme6sExURbz-76">
          <mxGeometry relative="1" as="geometry" />
        </mxCell>
        <mxCell id="oVar-C9LrSme6sExURbz-30" value="Resolve" style="shape=mxgraph.bpmn.shape;html=1;verticalLabelPosition=bottom;labelBackgroundColor=#ffffff;verticalAlign=top;align=center;perimeter=ellipsePerimeter;outlineConnect=0;outline=throwing;symbol=general;strokeColor=#FF3333;" vertex="1" parent="1">
          <mxGeometry x="330" y="730" width="50" height="50" as="geometry" />
        </mxCell>
        <mxCell id="oVar-C9LrSme6sExURbz-34" value="" style="edgeStyle=orthogonalEdgeStyle;curved=1;rounded=0;orthogonalLoop=1;jettySize=auto;html=1;entryX=0.5;entryY=0;entryDx=0;entryDy=0;exitX=0.5;exitY=0;exitDx=0;exitDy=0;" edge="1" parent="1" source="oVar-C9LrSme6sExURbz-27" target="oVar-C9LrSme6sExURbz-86">
          <mxGeometry relative="1" as="geometry">
            <mxPoint x="615" y="260" as="sourcePoint" />
            <mxPoint x="185" y="260" as="targetPoint" />
            <Array as="points">
              <mxPoint x="635" y="30" />
              <mxPoint x="-745" y="30" />
            </Array>
          </mxGeometry>
        </mxCell>
        <mxCell id="oVar-C9LrSme6sExURbz-39" value="" style="rounded=0;orthogonalLoop=1;jettySize=auto;html=1;entryX=0;entryY=0.5;entryDx=0;entryDy=0;exitX=1;exitY=0.5;exitDx=0;exitDy=0;" edge="1" parent="1" source="oVar-C9LrSme6sExURbz-35" target="oVar-C9LrSme6sExURbz-40">
          <mxGeometry relative="1" as="geometry">
            <mxPoint x="840.0000000000002" y="305" as="targetPoint" />
          </mxGeometry>
        </mxCell>
        <mxCell id="oVar-C9LrSme6sExURbz-35" value="BRP&lt;br&gt;(Final Sign-off&lt;br&gt;from all L1, L2 stakeholders)" style="shape=mxgraph.bpmn.shape;html=1;verticalLabelPosition=bottom;labelBackgroundColor=#ffffff;verticalAlign=top;align=center;perimeter=ellipsePerimeter;outlineConnect=0;outline=throwing;symbol=general;" vertex="1" parent="1">
          <mxGeometry x="860" y="320" width="50" height="50" as="geometry" />
        </mxCell>
        <mxCell id="oVar-C9LrSme6sExURbz-37" value="" style="edgeStyle=orthogonalEdgeStyle;curved=1;rounded=0;orthogonalLoop=1;jettySize=auto;html=1;entryX=0.5;entryY=0;entryDx=0;entryDy=0;exitX=0.5;exitY=0;exitDx=0;exitDy=0;" edge="1" parent="1" source="oVar-C9LrSme6sExURbz-27" target="oVar-C9LrSme6sExURbz-14">
          <mxGeometry relative="1" as="geometry">
            <mxPoint x="615" y="260" as="sourcePoint" />
            <mxPoint x="185" y="260" as="targetPoint" />
            <Array as="points">
              <mxPoint x="635" y="280" />
              <mxPoint x="505" y="280" />
            </Array>
          </mxGeometry>
        </mxCell>
        <mxCell id="oVar-C9LrSme6sExURbz-40" value="Solution&lt;br&gt;Ready&lt;br&gt;for PIPE" style="shape=mxgraph.bpmn.shape;html=1;verticalLabelPosition=bottom;labelBackgroundColor=#ffffff;verticalAlign=top;align=center;perimeter=ellipsePerimeter;outlineConnect=0;outline=end;symbol=general;strokeColor=#4D4D4D;" vertex="1" parent="1">
          <mxGeometry x="1010" y="320" width="50" height="50" as="geometry" />
        </mxCell>
        <mxCell id="oVar-C9LrSme6sExURbz-41" value="" style="rounded=0;orthogonalLoop=1;jettySize=auto;html=1;exitX=0.5;exitY=1;exitDx=0;exitDy=0;entryX=0.855;entryY=0.855;entryDx=0;entryDy=0;entryPerimeter=0;" edge="1" parent="1" source="oVar-C9LrSme6sExURbz-35" target="oVar-C9LrSme6sExURbz-17">
          <mxGeometry relative="1" as="geometry">
            <mxPoint x="495" y="310" as="sourcePoint" />
            <mxPoint x="270" y="565" as="targetPoint" />
          </mxGeometry>
        </mxCell>
        <mxCell id="oVar-C9LrSme6sExURbz-42" value="L2 Stakeholders&lt;br&gt;Aligned" style="shape=mxgraph.bpmn.shape;html=1;verticalLabelPosition=bottom;labelBackgroundColor=#ffffff;verticalAlign=top;align=center;perimeter=ellipsePerimeter;outlineConnect=0;outline=throwing;symbol=general;" vertex="1" parent="1">
          <mxGeometry x="731" y="320" width="50" height="50" as="geometry" />
        </mxCell>
        <mxCell id="oVar-C9LrSme6sExURbz-47" value="" style="rounded=0;orthogonalLoop=1;jettySize=auto;html=1;entryX=0;entryY=0.5;entryDx=0;entryDy=0;exitX=1;exitY=0.5;exitDx=0;exitDy=0;strokeColor=#FF3333;" edge="1" parent="1" source="oVar-C9LrSme6sExURbz-44" target="oVar-C9LrSme6sExURbz-30">
          <mxGeometry relative="1" as="geometry" />
        </mxCell>
        <mxCell id="oVar-C9LrSme6sExURbz-44" value="Escalate" style="shape=mxgraph.bpmn.shape;html=1;verticalLabelPosition=bottom;labelBackgroundColor=#ffffff;verticalAlign=top;align=center;perimeter=ellipsePerimeter;outlineConnect=0;outline=throwing;symbol=escalation;strokeColor=#FF3333;" vertex="1" parent="1">
          <mxGeometry x="100" y="640" width="50" height="50" as="geometry" />
        </mxCell>
        <mxCell id="oVar-C9LrSme6sExURbz-45" value="" style="rounded=0;orthogonalLoop=1;jettySize=auto;html=1;exitX=0.145;exitY=0.855;exitDx=0;exitDy=0;exitPerimeter=0;entryX=0.5;entryY=0;entryDx=0;entryDy=0;strokeColor=#FF3333;" edge="1" parent="1" source="oVar-C9LrSme6sExURbz-17" target="oVar-C9LrSme6sExURbz-44">
          <mxGeometry relative="1" as="geometry">
            <mxPoint x="255" y="500" as="sourcePoint" />
            <mxPoint x="255" y="539.9999999999999" as="targetPoint" />
          </mxGeometry>
        </mxCell>
        <mxCell id="oVar-C9LrSme6sExURbz-48" style="edgeStyle=none;rounded=0;orthogonalLoop=1;jettySize=auto;html=1;exitX=1;exitY=0.5;exitDx=0;exitDy=0;entryX=0;entryY=0.5;entryDx=0;entryDy=0;" edge="1" parent="1" source="oVar-C9LrSme6sExURbz-42" target="oVar-C9LrSme6sExURbz-35">
          <mxGeometry relative="1" as="geometry">
            <mxPoint x="735" y="330" as="targetPoint" />
          </mxGeometry>
        </mxCell>
        <mxCell id="oVar-C9LrSme6sExURbz-65" value="" style="edgeStyle=none;rounded=0;orthogonalLoop=1;jettySize=auto;html=1;entryX=0;entryY=0.5;entryDx=0;entryDy=0;dashed=1;dashPattern=1 4;" edge="1" parent="1" source="oVar-C9LrSme6sExURbz-63" target="oVar-C9LrSme6sExURbz-72">
          <mxGeometry relative="1" as="geometry">
            <mxPoint x="10" y="275" as="targetPoint" />
          </mxGeometry>
        </mxCell>
        <mxCell id="oVar-C9LrSme6sExURbz-63" value="Feature Prioritized&lt;br&gt;for solutioning" style="shape=mxgraph.bpmn.shape;html=1;verticalLabelPosition=bottom;labelBackgroundColor=#ffffff;verticalAlign=top;align=center;perimeter=ellipsePerimeter;outlineConnect=0;outline=throwing;symbol=general;strokeColor=#000000;" vertex="1" parent="1">
          <mxGeometry x="-350" y="110" width="50" height="50" as="geometry" />
        </mxCell>
        <mxCell id="oVar-C9LrSme6sExURbz-69" value="" style="edgeStyle=orthogonalEdgeStyle;curved=1;rounded=0;orthogonalLoop=1;jettySize=auto;html=1;exitX=1;exitY=0.5;exitDx=0;exitDy=0;entryX=0;entryY=0.5;entryDx=0;entryDy=0;" edge="1" parent="1" source="oVar-C9LrSme6sExURbz-16" target="oVar-C9LrSme6sExURbz-63">
          <mxGeometry relative="1" as="geometry">
            <mxPoint x="-750" y="145" as="sourcePoint" />
            <mxPoint x="-610" y="145" as="targetPoint" />
          </mxGeometry>
        </mxCell>
        <mxCell id="oVar-C9LrSme6sExURbz-72" value="&lt;b&gt;Feature&lt;br&gt;Picked up&lt;/b&gt;" style="shape=mxgraph.bpmn.shape;html=1;verticalLabelPosition=bottom;labelBackgroundColor=#ffffff;verticalAlign=top;align=center;perimeter=ellipsePerimeter;outlineConnect=0;outline=standard;symbol=general;" vertex="1" parent="1">
          <mxGeometry x="-170" y="320" width="50" height="50" as="geometry" />
        </mxCell>
        <mxCell id="oVar-C9LrSme6sExURbz-76" value="Reassign to the blue&lt;br&gt;step" style="shape=mxgraph.bpmn.shape;html=1;verticalLabelPosition=bottom;labelBackgroundColor=#ffffff;verticalAlign=top;align=center;perimeter=ellipsePerimeter;outlineConnect=0;outline=end;symbol=general;strokeColor=#FF3333;fillColor=#3399FF;" vertex="1" parent="1">
          <mxGeometry x="510" y="730" width="50" height="50" as="geometry" />
        </mxCell>
        <mxCell id="oVar-C9LrSme6sExURbz-82" value="" style="endArrow=none;html=1;strokeColor=#FF3333;strokeWidth=6;" edge="1" parent="1">
          <mxGeometry width="50" height="50" relative="1" as="geometry">
            <mxPoint x="-1060" y="220" as="sourcePoint" />
            <mxPoint x="1090" y="220" as="targetPoint" />
          </mxGeometry>
        </mxCell>
        <mxCell id="oVar-C9LrSme6sExURbz-83" value="&lt;font style=&quot;font-size: 32px&quot;&gt;Solution&lt;br&gt;Kanban&lt;br&gt;&lt;/font&gt;" style="text;html=1;align=center;verticalAlign=middle;resizable=0;points=[];autosize=1;" vertex="1" parent="1">
          <mxGeometry x="-1080" y="320" width="130" height="50" as="geometry" />
        </mxCell>
        <mxCell id="oVar-C9LrSme6sExURbz-86" value="In Discovery" style="shape=mxgraph.bpmn.shape;html=1;verticalLabelPosition=bottom;labelBackgroundColor=#ffffff;verticalAlign=top;align=center;perimeter=ellipsePerimeter;outlineConnect=0;outline=throwing;symbol=general;strokeColor=#007FFF;" vertex="1" parent="1">
          <mxGeometry x="-770" y="110" width="50" height="50" as="geometry" />
        </mxCell>
        <mxCell id="oVar-C9LrSme6sExURbz-88" value="" style="edgeStyle=orthogonalEdgeStyle;rounded=0;orthogonalLoop=1;jettySize=auto;html=1;curved=1;exitX=1;exitY=0.5;exitDx=0;exitDy=0;" edge="1" parent="1" source="oVar-C9LrSme6sExURbz-2">
          <mxGeometry relative="1" as="geometry">
            <mxPoint x="-710" y="145" as="sourcePoint" />
            <mxPoint x="-770" y="135" as="targetPoint" />
          </mxGeometry>
        </mxCell>
        <mxCell id="oVar-C9LrSme6sExURbz-89" value="" style="rounded=0;orthogonalLoop=1;jettySize=auto;html=1;entryX=1;entryY=0.5;entryDx=0;entryDy=0;exitX=0.5;exitY=1;exitDx=0;exitDy=0;" edge="1" parent="1" source="oVar-C9LrSme6sExURbz-42" target="oVar-C9LrSme6sExURbz-17">
          <mxGeometry relative="1" as="geometry">
            <mxPoint x="515" y="379.9999999999999" as="sourcePoint" />
            <mxPoint x="272.75" y="557.25" as="targetPoint" />
          </mxGeometry>
        </mxCell>
        <mxCell id="oVar-C9LrSme6sExURbz-90" value="&lt;font style=&quot;font-size: 32px&quot;&gt;Discovery&lt;br&gt;Phase&lt;br&gt;&lt;/font&gt;" style="text;html=1;align=center;verticalAlign=middle;resizable=0;points=[];autosize=1;" vertex="1" parent="1">
          <mxGeometry x="-1095" y="110" width="160" height="50" as="geometry" />
        </mxCell>
      </root>
    </mxGraphModel>
  </diagram>
</mxfile>
